<svg xmlns="http://www.w3.org/2000/svg" id="check" width="278.501" height="278.501" viewBox="0 0 278.501 278.501">
    <defs>
        <style>
            .cls-1{fill:#2f2f2f}
        </style>
    </defs>
    <path id="Path_1490" d="M1012.408 758.948l3.816-36.542-33.573-14.939a4.84 4.84 0 0 1-2.46-2.458l-14.934-33.573-36.549 3.821a4.872 4.872 0 0 1-3.34-.9l-29.754-21.563-29.752 21.563a4.881 4.881 0 0 1-3.34.9l-36.552-3.821-14.934 33.573a4.8 4.8 0 0 1-2.458 2.453l-33.573 14.944 3.816 36.542a4.853 4.853 0 0 1-.9 3.345l-21.563 29.752 21.568 29.755a4.853 4.853 0 0 1 .9 3.345l-3.816 36.539 33.573 14.939a4.839 4.839 0 0 1 2.458 2.46l14.934 33.573 36.552-3.821c.163 0 .332-.026.482-.026a4.811 4.811 0 0 1 2.838.926l29.771 21.56 29.754-21.56a4.839 4.839 0 0 1 3.34-.9l36.549 3.821 14.934-33.573a4.809 4.809 0 0 1 2.46-2.455l33.573-14.944-3.816-36.539a4.836 4.836 0 0 1 .9-3.345l21.56-29.754-21.56-29.752a4.837 4.837 0 0 1-.904-3.346zm-46.565-1.241l-95.851 95.853a4.845 4.845 0 0 1-6.846 0l-41.1-41.1a4.845 4.845 0 0 1 0-6.854l13.7-13.652a4.84 4.84 0 0 1 6.835 0l23.988 23.938 78.731-78.729a4.839 4.839 0 0 1 6.846 0l13.7 13.7a4.839 4.839 0 0 1-.003 6.844z" class="cls-1" data-name="Path 1490" transform="translate(-756.363 -652.793)"/>
</svg>
