<svg xmlns="http://www.w3.org/2000/svg" width="296.461" height="296.458" viewBox="0 0 296.461 296.458">
    <defs>
        <style>
            .cls-1{fill:#2f2f2f}
        </style>
    </defs>
    <path id="driving" d="M952.551 523.76c26.681-3.261 49.657-14.378 68.926-33.647s30.388-42.248 33.65-68.928h-44.47a75.5 75.5 0 0 1-58.106 58.106v44.47m-44.467-176.69h59.292l44.468 44.468h43.284q-5.561-43.355-39.281-74.113c-22.383-19.864-48.471-29.646-78.117-29.646s-55.736 9.781-78.117 29.646q-33.8 30.682-39.283 74.113h43.284l44.47-44.468m14.821 176.689v-44.47a75.5 75.5 0 0 1-58.105-58.105h-44.47c3.261 26.237 14.378 48.917 33.65 68.186a117.966 117.966 0 0 0 68.926 34.39m14.824-265.626c40.763 0 75.6 14.822 104.5 43.727s43.728 63.739 43.728 104.5-14.824 75.6-43.728 104.5-63.739 43.728-104.5 43.728-75.6-14.822-104.5-43.728-43.73-63.736-43.73-104.499 14.824-75.6 43.727-104.5 63.737-43.729 104.502-43.729z" class="cls-1" transform="translate(-789.498 -258.134)"/>
</svg>
