<svg xmlns="http://www.w3.org/2000/svg" width="270.178" height="294.74" viewBox="0 0 270.178 294.74">
    <defs>
        <style>
            .cls-1{fill:#2f2f2f}
        </style>
    </defs>
    <path id="gas" d="M428.8 387.65a16.374 16.374 0 1 1 16.374-16.374A16.373 16.373 0 0 1 428.8 387.65m-98.247 0h-98.245v-81.87h98.247m127.229 36.513l.164-.164-60.914-60.911-17.355 17.357 34.549 34.549c-15.391 5.4-26.363 20.633-26.363 38.152a40.936 40.936 0 0 0 40.935 40.936 41.857 41.857 0 0 0 16.374-3.437v118.057a16.374 16.374 0 0 1-32.748 0v-73.684a32.74 32.74 0 0 0-32.747-32.748H363.3V305.779a32.739 32.739 0 0 0-32.748-32.75h-98.244a32.636 32.636 0 0 0-32.748 32.75v261.99H363.3V444.96h24.562v81.873a40.936 40.936 0 0 0 81.872 0V371.276a40.97 40.97 0 0 0-11.95-28.983z" class="cls-1" transform="translate(-199.56 -273.029)"/>
</svg>
