<svg xmlns="http://www.w3.org/2000/svg" width="16" height="16" viewBox="0 0 16 16">
    <defs>
        <style>
            .cls-1{fill:#fff}
        </style>
    </defs>
    <path id="Path_1452" d="M798.3 272.47a6.364 6.364 0 0 0 5.536-5.536h-2.4a4.074 4.074 0 0 1-3.136 3.136v2.4m-2.4-9.536h3.2l2.4 2.4h2.336a6.356 6.356 0 0 0-2.12-4 6.355 6.355 0 0 0-8.432 0 6.355 6.355 0 0 0-2.12 4h2.336l2.4-2.4m.8 9.536v-2.4a4.075 4.075 0 0 1-3.136-3.136h-2.4a6.14 6.14 0 0 0 1.816 3.68 6.367 6.367 0 0 0 3.72 1.856m.8-14.336a8.058 8.058 0 1 1-5.64 2.36 7.705 7.705 0 0 1 5.64-2.36z" class="cls-1" data-name="Path 1452" transform="translate(-789.498 -258.134)"/>
</svg>
